<?xml version="1.0" encoding="utf-8"?>
<!-- Generator: Adobe Illustrator 18.0.0, SVG Export Plug-In . SVG Version: 6.00 Build 0)  -->
<!DOCTYPE svg PUBLIC "-//W3C//DTD SVG 1.1//EN" "http://www.w3.org/Graphics/SVG/1.1/DTD/svg11.dtd">
<svg version="1.1" id="Layer_1" xmlns="http://www.w3.org/2000/svg" xmlns:xlink="http://www.w3.org/1999/xlink" x="0px" y="0px"
	 viewBox="0 0 479.7 258.9" width="430.446156209" height="232.317093689" enable-background="new 0 0 479.7 258.9" xml:space="preserve">
<linearGradient id="SVGID_1_" gradientUnits="userSpaceOnUse" x1="-69.7067" y1="524.7527" x2="-65.1994" y2="524.7527" gradientTransform="matrix(84.0062 -20.8361 -20.8361 -84.0062 16790.5195 42760.1289)">
	<stop  offset="0" style="stop-color:#00AFDB"/>
	<stop  offset="0.2561" style="stop-color:#0092C5"/>
	<stop  offset="0.7556" style="stop-color:#005D9F"/>
	<stop  offset="1" style="stop-color:#004990"/>
</linearGradient>
<path fill="url(#SVGID_1_)" d="M142.2,97.1c18-23.4,35-45.6,86.1-45.8c0.5,0,0.8-0.4,0.8-0.8v-4.9c0-0.2-0.1-0.4-0.2-0.6
	c-0.2-0.2-0.4-0.2-0.6-0.2C134.4,44.9,109,77.5,86.6,106.3c-18,23.2-35.1,45.1-85.7,45.3c-0.5,0-0.8,0.4-0.8,0.9v5.8
	c0,0.2,0.1,0.4,0.2,0.6c0.2,0.2,0.4,0.2,0.6,0.2C94.8,158.9,120,126.1,142.2,97.1z"/>
<linearGradient id="SVGID_2_" gradientUnits="userSpaceOnUse" x1="-69.7066" y1="524.6506" x2="-65.1994" y2="524.6506" gradientTransform="matrix(84.0057 -20.836 -20.836 -84.0057 16791.0391 42762.3242)">
	<stop  offset="0" style="stop-color:#00AFDB"/>
	<stop  offset="0.2561" style="stop-color:#0092C5"/>
	<stop  offset="0.7556" style="stop-color:#005D9F"/>
	<stop  offset="1" style="stop-color:#004990"/>
</linearGradient>
<path fill="url(#SVGID_2_)" d="M341.3,117.1c15.6-1.5,29.7-9,39.7-21.1c10-12.1,14.6-27.3,13.1-42.9c-1.5-15.6-9-29.7-21.1-39.7
	C362.4,4.6,349.3,0,335.8,0c-4,0-8,0.4-12.1,1.2c-0.4,0.1-0.7,0.4-0.7,0.8v5.1c0,0.4,0.3,0.8,0.8,0.8c9.8,0.6,18.9,4.1,26.3,10.3
	c9.4,7.8,15.3,18.7,16.5,30.9l0.2,4.5c0,10.7-3.6,20.7-10.4,29c-14.8,17.9-41.4,21.8-60.7,8.9c-0.3-0.2-0.7-0.2-1,0.1l-4,3.5
	c-0.3,0.3-0.4,0.8-0.1,1.2c2.4,2.9,5,5.5,7.7,7.7C310.4,114,325.6,118.6,341.3,117.1z"/>
<linearGradient id="SVGID_3_" gradientUnits="userSpaceOnUse" x1="-69.7066" y1="524.5171" x2="-65.1993" y2="524.5171" gradientTransform="matrix(84.0081 -20.8366 -20.8366 -84.0081 16792.3203 42766.7695)">
	<stop  offset="0" style="stop-color:#00AFDB"/>
	<stop  offset="0.2561" style="stop-color:#0092C5"/>
	<stop  offset="0.7556" style="stop-color:#005D9F"/>
	<stop  offset="1" style="stop-color:#004990"/>
</linearGradient>
<path fill="url(#SVGID_3_)" d="M251.1,97.1c18-23.4,35-45.6,86.1-45.8c0.5,0,0.8-0.4,0.8-0.8v-4.9c0-0.2-0.1-0.4-0.3-0.6
	c-0.2-0.2-0.4-0.2-0.6-0.2c-93.9,0.2-119.3,32.8-141.7,61.6c-18,23.2-35.1,45.1-85.7,45.3c-0.5,0-0.8,0.4-0.8,0.9v5.8
	c0,0.2,0.1,0.4,0.2,0.6c0.2,0.2,0.4,0.2,0.6,0.2C203.7,158.9,228.9,126.1,251.1,97.1z"/>
<path fill="#636359" d="M452.2,157.3h-38.8l-1.5,7.3c-1.4,7.3,2.8,13.3,9.6,14.4h2.3c-0.6,0-1.1,0-1.7,0.1c0.5,0.1,1.1,0.1,1.6,0.1
	h-2.3c-7.3,1.1-13.9,7.1-15.6,14.4l-13.2,63.5h9.8c7.9,0,15.6-6.4,17.3-14.3l4.4-21.4h14.7c21.7,0,36.7-15.7,40.1-32.1
	C482.3,173,473.9,157.3,452.2,157.3 M454.9,189.4c-1.1,5.2-5.9,10.1-12.6,10.1h-13.6l4.2-20.2h13.6
	C453.1,179.3,455.9,184.2,454.9,189.4 M363.4,175.3c9.7,0,16.6,2.1,21.6,4.6l6.2-19.9c-6.6-3.2-18-4.4-30-4.4
	c-21.5,0-43.6,7.7-43.5,33.5c0.1,28.2,38.1,22.2,38.2,38.2c0.1,10.3-12.7,11.9-20.9,11.9c-8.6,0-19-2.3-24.2-5.7l-6.1,20.3
	c8.6,2.7,20.2,5.2,30.3,5.2c22.7,0,47.8-7.2,47.7-34.8c-0.1-30.3-38.1-25-38.2-39.2C344.6,176.9,353,175.3,363.4,175.3 M280.5,175.3
	c9.7,0,16.6,2.1,21.6,4.6l6.2-19.9c-6.6-3.2-18-4.4-30-4.4c-21.5,0-43.6,7.7-43.5,33.5c0.1,28.2,38.1,22.2,38.2,38.2
	c0,10.3-12.7,11.9-20.9,11.9c-8.6,0-19-2.3-24.2-5.7l-6.1,20.3c8.6,2.7,20.2,5.2,30.3,5.2c22.7,0,47.8-7.2,47.7-34.8
	c-0.1-30.3-38.1-25-38.2-39.2C261.7,176.9,270.1,175.3,280.5,175.3"/>
</svg>
